<svg id="visual" viewBox="0 0 960 300" width="960" height="300" xmlns="http://www.w3.org/2000/svg" xmlns:xlink="http://www.w3.org/1999/xlink" version="1.1"><rect x="0" y="0" width="960" height="300" fill="#ffffff"></rect><path d="M0 223L16 223C32 223 64 223 96 217.5C128 212 160 201 192 200.5C224 200 256 210 288 209.8C320 209.7 352 199.3 384 187C416 174.7 448 160.3 480 165.5C512 170.7 544 195.3 576 196.7C608 198 640 176 672 164.3C704 152.7 736 151.3 768 162.2C800 173 832 196 864 197.3C896 198.7 928 178.3 944 168.2L960 158L960 301L944 301C928 301 896 301 864 301C832 301 800 301 768 301C736 301 704 301 672 301C640 301 608 301 576 301C544 301 512 301 480 301C448 301 416 301 384 301C352 301 320 301 288 301C256 301 224 301 192 301C160 301 128 301 96 301C64 301 32 301 16 301L0 301Z" fill="#2e7bbb"></path><path d="M0 200L16 198.7C32 197.3 64 194.7 96 199.7C128 204.7 160 217.3 192 215.5C224 213.7 256 197.3 288 189.2C320 181 352 181 384 189.3C416 197.7 448 214.3 480 220.8C512 227.3 544 223.7 576 222C608 220.3 640 220.7 672 219.7C704 218.7 736 216.3 768 209.7C800 203 832 192 864 196.5C896 201 928 221 944 231L960 241L960 301L944 301C928 301 896 301 864 301C832 301 800 301 768 301C736 301 704 301 672 301C640 301 608 301 576 301C544 301 512 301 480 301C448 301 416 301 384 301C352 301 320 301 288 301C256 301 224 301 192 301C160 301 128 301 96 301C64 301 32 301 16 301L0 301Z" fill="#4686be"></path><path d="M0 252L16 253C32 254 64 256 96 248.3C128 240.7 160 223.3 192 223.2C224 223 256 240 288 250.2C320 260.3 352 263.7 384 256.3C416 249 448 231 480 225.8C512 220.7 544 228.3 576 230.2C608 232 640 228 672 224.8C704 221.7 736 219.3 768 222.8C800 226.3 832 235.7 864 235.7C896 235.7 928 226.3 944 221.7L960 217L960 301L944 301C928 301 896 301 864 301C832 301 800 301 768 301C736 301 704 301 672 301C640 301 608 301 576 301C544 301 512 301 480 301C448 301 416 301 384 301C352 301 320 301 288 301C256 301 224 301 192 301C160 301 128 301 96 301C64 301 32 301 16 301L0 301Z" fill="#5a92c2"></path><path d="M0 251L16 251.8C32 252.7 64 254.3 96 254.5C128 254.7 160 253.3 192 255.2C224 257 256 262 288 262.8C320 263.7 352 260.3 384 263C416 265.7 448 274.3 480 274C512 273.7 544 264.3 576 262.2C608 260 640 265 672 269.5C704 274 736 278 768 280.3C800 282.7 832 283.3 864 282.2C896 281 928 278 944 276.5L960 275L960 301L944 301C928 301 896 301 864 301C832 301 800 301 768 301C736 301 704 301 672 301C640 301 608 301 576 301C544 301 512 301 480 301C448 301 416 301 384 301C352 301 320 301 288 301C256 301 224 301 192 301C160 301 128 301 96 301C64 301 32 301 16 301L0 301Z" fill="#6d9dc5"></path></svg>